<svg xmlns="http://www.w3.org/2000/svg" viewBox="0 0 1000 1300" width="1000" height="1300">
  <defs>
    <linearGradient id="bg-quiet-static" gradientTransform="rotate(231)">
      <stop offset="0%" stop-color="#F7F7F2" />
      <stop offset="100%" stop-color="#0B0B0B" />
    </linearGradient>
    <filter id="grain-quiet-static">
      <feTurbulence type="fractalNoise" baseFrequency="0.85" numOctaves="2" stitchTiles="stitch" result="noise" />
      <feColorMatrix in="noise" type="matrix" values="0 0 0 0 0  0 0 0 0 0  0 0 0 0 0  0 0 0 0.035 0" />
    </filter>
  </defs>
  <rect width="1000" height="1300" fill="url(#bg-quiet-static)" />
  <path d="M 353.8 378.8 Q 288.4 424.8 284.4 546.9 Q 176.5 647.2 116.2 739.3 Q -25.5 646.0 -102.2 597.2 Q -102.8 483.3 -81.9 378.8 Q -74.6 298.4 -41.9 220.6 Q 17.0 107.3 116.2 36.2 Q 270.2 83.6 318.1 176.9 Q 386.5 229.8 353.8 378.8 Z" fill="#F7F7F2" opacity="0.49" /><path d="M 189.5 1091.5 Q 154.3 1113.0 131.1 1207.8 Q 41.7 1235.5 14.8 1336.8 Q -69.8 1321.1 -134.1 1240.4 Q -181.6 1160.8 -199.1 1091.5 Q -149.6 1003.0 -97.6 979.1 Q -52.6 929.0 14.8 880.9 Q 102.2 938.8 125.5 980.8 Q 147.8 1008.3 189.5 1091.5 Z" fill="#1B598E" opacity="0.62" /><path d="M 1135.8 1103.2 Q 1100.7 1195.9 1016.8 1263.4 Q 971.8 1332.3 856.6 1348.9 Q 789.1 1294.6 693.6 1266.2 Q 685.1 1144.7 668.0 1103.2 Q 716.2 1025.3 702.5 949.1 Q 766.9 937.6 856.6 864.6 Q 926.5 902.1 1036.3 923.5 Q 1124.9 1052.2 1135.8 1103.2 Z" fill="#F7F7F2" opacity="0.61" /><path d="M 1243.8 718.4 Q 1140.0 769.0 1062.1 914.2 Q 911.7 935.7 866.3 1036.8 Q 781.8 1039.1 644.4 940.3 Q 551.3 814.9 449.4 718.4 Q 538.5 659.4 619.4 471.5 Q 700.9 425.7 866.3 432.3 Q 1021.2 446.7 1079.1 505.5 Q 1218.5 618.4 1243.8 718.4 Z" fill="#D7263D" opacity="0.36" />
  <path d="M 209.7 204.2 Q 136.1 51.1 331.6 54.8" stroke="#0B0B0B" stroke-width="10.7" stroke-linecap="round" fill="none" opacity="0.63" /><path d="M 163.4 275.1 Q 23.3 184.1 -46.8 46.5" stroke="#F4D35E" stroke-width="25.2" stroke-linecap="round" fill="none" opacity="0.28" /><path d="M 519.8 566.4 Q 473.3 592.1 302.6 945.6" stroke="#F4D35E" stroke-width="16.6" stroke-linecap="round" fill="none" opacity="0.49" /><path d="M 790.6 174.5 Q 723.0 262.5 539.1 284.9" stroke="#F4D35E" stroke-width="19.8" stroke-linecap="round" fill="none" opacity="0.68" /><path d="M 833.5 3.5 Q 898.2 71.1 799.4 467.2" stroke="#F4D35E" stroke-width="16.5" stroke-linecap="round" fill="none" opacity="0.38" /><path d="M 341.6 772.2 Q 94.0 709.3 -13.1 514.3" stroke="#F7F7F2" stroke-width="26.2" stroke-linecap="round" fill="none" opacity="0.41" /><path d="M 978.9 777.8 Q 889.8 670.4 917.0 756.3" stroke="#1B598E" stroke-width="29.4" stroke-linecap="round" fill="none" opacity="0.39" /><path d="M 414.7 530.1 Q 298.5 368.3 253.7 302.0" stroke="#1B598E" stroke-width="22.5" stroke-linecap="round" fill="none" opacity="0.35" /><path d="M 244.1 736.0 Q 355.5 581.5 235.4 405.1" stroke="#1B598E" stroke-width="23.6" stroke-linecap="round" fill="none" opacity="0.37" /><path d="M 58.7 440.3 Q -33.9 771.8 161.6 866.4" stroke="#F4D35E" stroke-width="31.4" stroke-linecap="round" fill="none" opacity="0.51" />
  <rect width="1000" height="1300" filter="url(#grain-quiet-static)" />
</svg>